<svg  xmlns="http://www.w3.org/2000/svg" viewBox="0 0 1000 1000">
<path opacity="0.3" fill="#035A4B"  d="M895,255.081C895,198.703,849.297,153,792.92,153H180.08
	C123.703,153,78,198.703,78,255.081V765.92C78,822.297,123.703,868,180.08,868h612.84C849.297,868,895,822.297,895,765.92V255.081z"
	/>
<path fill="#035A4B" d="M270.319,423.92c42.27,0,76.56-34.291,76.56-76.561s-34.291-76.56-76.56-76.56s-76.561,34.291-76.561,76.56
	S228.05,423.92,270.319,423.92z"/>
<path fill="#035A4B" d="M304.278,591.396L202.198,718.996c-9.238,11.496-10.997,27.146-4.617,40.438
	c6.38,13.228,19.772,21.566,34.458,21.566h535.922c14.224,0,27.247-7.743,33.827-20.303c6.512-12.628,5.717-27.729-2.259-39.357
	l-191.4-280.696c-7.18-10.537-18.94-16.736-31.568-16.736s-24.589,6.218-31.568,16.755L406.227,644.159l-42.266-52.766
	c-7.343-9.106-18.345-14.354-29.841-14.354C322.623,577.039,311.458,582.289,304.278,591.396z"/>
</svg>
