<?xml version="1.0" encoding="utf-8"?>
<!-- Generator: Adobe Illustrator 16.0.0, SVG Export Plug-In . SVG Version: 6.00 Build 0)  -->
<!DOCTYPE svg PUBLIC "-//W3C//DTD SVG 1.1//EN" "http://www.w3.org/Graphics/SVG/1.1/DTD/svg11.dtd">
<svg version="1.1" id="Layer_1" xmlns="http://www.w3.org/2000/svg" xmlns:xlink="http://www.w3.org/1999/xlink" x="0px" y="0px"
	 width="24px" height="24px" viewBox="0 0 24 24" enable-background="new 0 0 24 24" xml:space="preserve">
<path opacity="0.3" fill="#035A4B" enable-background="new    " d="M10.025,4.725c-2.3-2.3-6-2.3-8.3,0c-2.3,2.3-2.3,6,0,8.3
	l7.6,7.6c0.4,0.4,1,0.4,1.399,0l7.601-7.6c2.3-2.3,2.3-6,0-8.3C16.025,2.425,12.325,2.425,10.025,4.725z"/>
<path fill="#035A4B" d="M17.751,12.444c-1.204-1.204-3.142-1.204-4.345,0c-1.204,1.204-1.204,3.141,0,4.346l3.979,3.979
	c0.209,0.209,0.523,0.209,0.732,0l3.979-3.979c1.205-1.205,1.205-3.142,0-4.346C20.893,11.24,18.955,11.24,17.751,12.444z"/>
</svg>
