<?xml version="1.0" encoding="utf-8"?>
<!-- Generator: Adobe Illustrator 16.0.0, SVG Export Plug-In . SVG Version: 6.00 Build 0)  -->
<!DOCTYPE svg PUBLIC "-//W3C//DTD SVG 1.1//EN" "http://www.w3.org/Graphics/SVG/1.1/DTD/svg11.dtd">
<svg version="1.1" id="Layer_1" xmlns="http://www.w3.org/2000/svg" xmlns:xlink="http://www.w3.org/1999/xlink" x="0px" y="0px"
	 width="24px" height="24px" viewBox="0 0 24 24" enable-background="new 0 0 24 24" xml:space="preserve">
<path opacity="0.3" fill="#035A4B" enable-background="new    " d="M17.447,3.693c-0.242-0.583-0.598-1.115-1.045-1.562
	c-0.447-0.446-0.977-0.801-1.561-1.042C14.259,0.847,13.631,0.723,13,0.723c-0.632,0-1.257,0.125-1.842,0.367
	c-0.584,0.241-1.114,0.596-1.561,1.042L6.195,5.535L2.792,8.937c-0.887,0.906-1.38,2.125-1.374,3.393
	c0.007,1.268,0.513,2.481,1.409,3.375c0.896,0.898,2.11,1.406,3.378,1.412c1.267,0.006,2.486-0.486,3.392-1.373L13,12.341
	l3.402-3.404c0.447-0.446,0.803-0.976,1.045-1.561c0.241-0.584,0.365-1.209,0.365-1.842C17.813,4.903,17.688,4.277,17.447,3.693z"/>
<polygon fill="#035A4B" points="23.166,13.498 17.577,13.498 17.577,7.909 13.735,7.909 13.735,13.498 8.146,13.498 8.146,17.339 
	13.735,17.339 13.735,22.929 17.577,22.929 17.577,17.339 23.166,17.339 "/>
<path fill="#035A4B" d="M10.759,3.294L7.356,6.697L7.11,6.943C7.031,7.019,6.969,7.109,6.926,7.209
	C6.883,7.311,6.86,7.417,6.86,7.527C6.858,7.636,6.88,7.743,6.92,7.845C6.962,7.946,7.022,8.037,7.1,8.115
	c0.077,0.077,0.169,0.138,0.27,0.18c0.102,0.042,0.209,0.063,0.318,0.061c0.109-0.001,0.217-0.023,0.317-0.067
	c0.1-0.042,0.191-0.104,0.267-0.183l0.246-0.247l3.402-3.402c0.141-0.142,0.31-0.255,0.495-0.332
	C12.601,4.047,12.801,4.009,13,4.009c0.218,0,0.427-0.087,0.582-0.241c0.152-0.154,0.239-0.363,0.239-0.581s-0.087-0.427-0.239-0.58
	C13.427,2.453,13.218,2.366,13,2.366c-0.416-0.001-0.828,0.081-1.213,0.239C11.402,2.764,11.053,2.999,10.759,3.294z"/>
<path fill="#035A4B" d="M6.237,8.98C6.16,8.903,6.069,8.841,5.968,8.801C5.867,8.759,5.759,8.738,5.649,8.738
	C5.541,8.739,5.433,8.761,5.333,8.805c-0.1,0.043-0.191,0.105-0.267,0.184L4.597,9.457C4.518,9.533,4.455,9.622,4.413,9.724
	C4.369,9.823,4.347,9.931,4.346,10.04c-0.001,0.11,0.02,0.218,0.061,0.319c0.042,0.101,0.103,0.193,0.179,0.269
	c0.078,0.078,0.169,0.139,0.271,0.181c0.1,0.041,0.208,0.062,0.317,0.061c0.11-0.001,0.217-0.023,0.317-0.068
	c0.1-0.042,0.191-0.104,0.267-0.183l0.468-0.466c0.078-0.076,0.142-0.167,0.185-0.267c0.043-0.101,0.065-0.208,0.066-0.317
	c0.001-0.11-0.02-0.216-0.06-0.319C6.375,9.149,6.314,9.057,6.237,8.98z"/>
</svg>
